Coordinates
version=1
nRows=14
nColumns=36
inDegrees=yes

Units are S.I. units (second, meters, Newtons, ...)
If the header above contains a line with 'inDegrees', this indicates whether rotational values are in degrees (yes) or radians (no).

endheader
time	pelvis_tilt	pelvis_list	pelvis_rotation	pelvis_tx	pelvis_ty	pelvis_tz	hip_flexion_r	hip_adduction_r	hip_rotation_r	knee_angle_r	knee_angle_r_beta	ankle_angle_r	subtalar_angle_r	mtp_angle_r	hip_flexion_l	hip_adduction_l	hip_rotation_l	knee_angle_l	knee_angle_l_beta	ankle_angle_l	subtalar_angle_l	mtp_angle_l	lumbar_extension	lumbar_bending	lumbar_rotation	arm_flex_r	arm_add_r	arm_rot_r	elbow_flex_r	pro_sup_r	arm_flex_l	arm_add_l	arm_rot_l	elbow_flex_l	pro_sup_l
      4.42500000	     -6.44844004	     -0.67297859	      7.13820715	      0.30379216	      0.80897690	     -0.07447585	     35.85871793	     -2.06165547	      1.30520172	     61.14965954	      1.06726290	     23.11795950	    -28.73314245	     -7.49999987	     37.18227587	      1.78620550	     11.99838708	     64.18094202	      1.12016876	     24.22274405	    -16.63659698	     -7.49999987	     -9.40523976	     -4.39239889	     -0.13484379	     41.95151380	    -19.50262520	     29.80626284	     64.90271119	     72.22234258	     50.37268769	    -19.42138214	     30.76759322	     48.48592771	     54.38770615
      4.42916670	     -6.06041342	     -0.41846434	      6.85411950	      0.30442851	      0.80596984	     -0.07571865	     35.80080107	     -2.33157435	      1.63356451	     61.86305575	      1.07971401	     23.82411393	    -28.66585853	     -7.49999987	     36.87920619	      2.03357626	     11.79174092	     64.59422772	      1.12738195	     24.83752892	    -16.26395303	     -7.49999987	    -10.12450104	     -4.41253915	     -0.59705457	     40.24407954	    -19.60601940	     30.53853850	     63.99459911	     72.10900502	     48.20248961	    -19.85593774	     30.70906204	     47.27062839	     54.26147172
      4.43333330	     -5.75665317	     -0.13618559	      6.78148598	      0.30521730	      0.80520824	     -0.07516090	     35.70306788	     -2.57472770	      1.89921226	     62.39742867	      1.08904058	     24.13119349	    -28.61271893	     -7.49999987	     36.53038803	      2.27576832	     11.74255910	     64.77430620	      1.13052491	     25.19140760	    -15.85099652	     -7.49999987	    -10.75572457	     -4.55104875	     -1.01469811	     38.05430202	    -19.64876037	     30.74998959	     63.47440614	     72.01886148	     45.80143383	    -20.36196391	     30.62316285	     46.20226032	     54.22314931
      4.43750000	     -4.82251095	      0.16681010	      6.72566198	      0.30676318	      0.80966386	     -0.07647619	     34.49548849	     -2.80368537	      1.99077095	     62.34447249	      1.08811632	     23.73186671	    -28.96076310	     -7.49999987	     35.16305385	      2.52962714	     11.72381548	     64.55046671	      1.12661818	     25.08205303	    -15.62983861	     -7.49999987	    -11.81411685	     -4.51793696	     -1.13125306	     35.95866743	    -19.39640561	     30.82515224	     61.36550156	     71.90208870	     43.27341400	    -19.92780054	     29.81755942	     43.94687989	     54.13512765
      4.44166670	     -4.03897007	      0.38964382	      6.81882539	      0.30749536	      0.80761033	     -0.07304825	     33.70817549	     -2.74217263	      2.04747063	     62.60403226	      1.09264649	     24.00110301	    -28.92658828	     -7.49999987	     34.08933001	      2.41767674	     11.50740509	     64.38540444	      1.12373730	     25.61726557	    -15.46004085	     -7.49999987	    -12.89863089	     -4.70438552	     -1.29383379	     33.97542403	    -18.93700820	     30.78051519	     59.51229150	     72.14843982	     41.31909783	    -19.98862715	     29.38374498	     41.97031974	     53.95094876
      4.44583330	     -2.97800426	      0.53003215	      7.11731045	      0.30914951	      0.81002626	     -0.07101342	     32.28840104	     -2.58978882	      2.00295387	     62.48477727	      1.09056510	     23.95127602	    -29.27775802	     -7.49999987	     32.77659076	      2.25178219	     11.68934749	     64.10389894	      1.11882410	     25.77883559	    -15.28745128	     -7.49999987	    -14.37452034	     -4.78570242	     -1.49160695	     32.12886833	    -18.47215908	     30.67603799	     57.36708229	     72.19768152	     39.63084184	    -19.88550190	     29.12137233	     39.88679580	     53.91756268
      4.45000000	     -2.03442971	      0.73807966	      7.06302368	      0.30946805	      0.80653027	     -0.07458615	     31.38947882	     -2.69363065	      2.12217403	     62.98462637	      1.09928911	     24.30398523	    -29.51204295	     -7.49999987	     31.82388526	      2.30562738	     11.45882802	     64.46833682	      1.12518474	     26.68889542	    -15.03808650	     -7.49999987	    -15.72175792	     -4.83436481	     -1.46477510	     30.64594621	    -18.56663586	     30.91641845	     55.70927106	     72.58971915	     38.02998515	    -20.09227848	     29.39461622	     38.38915964	     53.86593935
      4.45416670	     -0.81634241	      1.09516731	      6.73995634	      0.30987716	      0.81252434	     -0.07707387	     29.71283922	     -3.01832978	      2.30312079	     62.48561456	      1.09057971	     24.33238893	    -29.25087667	     -7.49999987	     30.14186064	      2.59753017	     11.23203368	     64.13343963	      1.11933968	     26.85754143	    -15.20827513	     -7.49999987	    -17.38902269	     -4.85825653	     -1.39359092	     29.11887123	    -18.52341028	     31.10862530	     53.85529408	     72.35155972	     36.13980856	    -20.06448783	     29.31280896	     36.73595336	     54.04408735
      4.45833330	     -0.50459538	      1.23043827	      6.34854952	      0.31097054	      0.80656896	     -0.07866661	     29.63029288	     -3.29722963	      2.47567463	     63.07305271	      1.10083244	     25.78186709	    -27.99689578	     -7.49999987	     29.86350774	      2.69209770	     10.72130287	     64.67378359	      1.12877046	     27.69072957	    -15.33120173	     -7.49999987	    -17.94871176	     -4.69258747	     -1.27244235	     27.25897669	    -19.00830971	     31.30874705	     53.75421056	     71.76809171	     33.72858260	    -20.42677420	     29.48345384	     37.06162890	     54.31116718
      4.46250000	      1.50846930	      1.66127096	      5.75392972	      0.30806412	      0.81619688	     -0.08067165	     27.19984965	     -3.53456356	      3.02801682	     62.29162908	      1.08719402	     24.72991797	    -28.63040427	     -7.49999987	     27.33547554	      2.97363619	     10.13793370	     64.12200643	      1.11914014	     27.32475584	    -15.65584826	     -7.49999987	    -20.65123712	     -4.69010646	     -1.38536403	     26.71950618	    -18.39348629	     31.33536939	     50.72953428	     72.08085920	     32.67830557	    -19.80134632	     29.35997015	     33.89883942	     54.23369867
      4.46666670	      1.85779404	      1.69630826	      5.43437720	      0.30338187	      0.81761444	     -0.07870462	     26.98729790	     -3.53198555	      3.15561313	     62.01955016	      1.08244535	     24.51992551	    -28.40033588	     -7.49999987	     27.08024871	      2.98693614	      9.91213429	     64.00794764	      1.11714943	     27.11994160	    -15.77460929	     -7.49999987	    -21.70832860	     -4.47082441	     -1.32761395	     25.44242161	    -18.55530218	     31.56904590	     50.03009285	     72.14010575	     31.13831577	    -19.65625822	     29.58445322	     33.24415061	     54.24019772
      4.47083330	      3.49615821	      1.93090232	      5.07139841	      0.30259946	      0.81546032	     -0.08341019	     25.49363784	     -3.77425576	      3.52766890	     62.25682669	      1.08658661	     24.67657521	    -27.91500355	     -7.49999987	     25.29733658	      3.25926402	      9.78971663	     64.02241189	      1.11740188	     26.74432543	    -16.94666088	     -7.49999987	    -24.00710892	     -4.15939567	     -1.44240769	     25.27545109	    -18.48292658	     32.31257775	     47.34357157	     73.14755221	     30.54336047	    -19.03451605	     30.18655593	     30.75826146	     54.20994094
      4.47500000	      3.84464277	      2.10696955	      4.92666904	      0.30138639	      0.81078535	     -0.08714788	     25.86728039	     -4.20461941	      3.72254786	     63.39570625	      1.10646381	     24.99435027	    -27.84543629	     -7.49999987	     25.40307244	      3.75466721	      9.68457421	     64.85660956	      1.13196138	     27.26946555	    -17.23168533	     -7.49999987	    -24.80427629	     -3.74372860	     -1.47008274	     24.04722254	    -19.22075301	     32.30491728	     47.03173535	     72.90660586	     28.91813526	    -18.71876839	     30.25309896	     30.81644233	     54.30964810
      4.47916670	      4.59059512	      2.47465859	      4.93686831	      0.30022035	      0.81191431	     -0.09057978	     25.45670851	     -4.87168671	      3.89207060	     64.02361999	      1.11742297	     25.14444054	    -27.33963431	     -7.49999987	     24.83615982	      4.57450867	      9.76859428	     65.31494791	      1.13996089	     27.39408262	    -17.98984788	     -7.49999987	    -25.91408719	     -3.52100410	     -1.31231775	     23.07363987	    -19.86016572	     32.50297519	     45.22605673	     72.79111136	     28.06053412	    -17.64024940	     29.97771106	     29.22274094	     54.28287852
